# xmcd
#
# Track frame offsets: 
#        150
#        4433
#        20378
#        22207
#        44806
#        65017
#        67938
#        82742
#        98563
#        119231
#        121623
#        138857
#        160090
#        179592
#        194891
#        212952
#        214801
#        231074
#
# Disc length: 3284 seconds
#
# Revision: 1
# Processed by: cddbd v1.5.2PL0 Copyright (c) Steve Scherf et al.
# Submitted via: ExactAudioCopy v1.0b3
#
DISCID=0a0cd212
DTITLE=Unko Man / うんこの唄
DYEAR=2012
DGENRE=Pop
TTITLE0=まじうま
TTITLE1=レア
TTITLE2=That's Mine
TTITLE3=That's Yours
TTITLE4=さようなら
TTITLE5=また逢えたね
TTITLE6=食し方
TTITLE7=煮物
TTITLE8=揚げ物
TTITLE9=ムニエル
TTITLE10=和え物
TTITLE11=感染
EXTD=extended dataの
EXTD=テスト
EXTT0=
EXTT1=
EXTT2=
EXTT3=
EXTT4=
EXTT5=複数の行にまたがる
EXTT5=情報です
EXTT6=
EXTT7=
EXTT8=
EXTT9=特別な情報
EXTT10=
EXTT11=
PLAYORDER=
